HIERARCHY
ROOT Hips
{
	OFFSET -0.001795 -0.223333 0.028219
	CHANNELS 6 Xposition Yposition Zposition Zrotation Yrotation Xrotation 
	JOINT LeftUpLeg
	{
		OFFSET 0.069520 -0.091406 -0.006815
		CHANNELS 3 Zrotation Yrotation Xrotation
		JOINT LeftLeg
		{
			OFFSET 0.034277 -0.375199 -0.004496
			CHANNELS 3 Zrotation Yrotation Xrotation
			JOINT LeftFoot
			{
				OFFSET -0.013596 -0.397961 -0.043693
				CHANNELS 3 Zrotation Yrotation Xrotation
				JOINT LeftToe
				{
					OFFSET 0.026358 -0.055791 0.119288
					CHANNELS 3 Zrotation Yrotation Xrotation
					End Site
					{
						OFFSET 0.000000 0.000000 0.000000
					}
				}
			}
		}
	}
	JOINT RightUpLeg
	{
		OFFSET -0.067670 -0.090522 -0.004320
		CHANNELS 3 Zrotation Yrotation Xrotation
		JOINT RightLeg
		{
			OFFSET -0.038290 -0.382569 -0.008850
			CHANNELS 3 Zrotation Yrotation Xrotation
			JOINT RightFoot
			{
				OFFSET 0.015774 -0.398415 -0.042312
				CHANNELS 3 Zrotation Yrotation Xrotation
				JOINT RightToe
				{
					OFFSET -0.025372 -0.048144 0.123348
					CHANNELS 3 Zrotation Yrotation Xrotation
					End Site
					{
						OFFSET 0.000000 0.000000 0.000000
					}
				}
			}
		}
	}
	JOINT Spine
	{
		OFFSET -0.002533 0.108963 -0.026696
		CHANNELS 3 Zrotation Yrotation Xrotation
		JOINT Spine1
		{
			OFFSET 0.005487 0.135180 0.001092
			CHANNELS 3 Zrotation Yrotation Xrotation
			JOINT Spine2
			{
				OFFSET 0.001457 0.052922 0.025425
				CHANNELS 3 Zrotation Yrotation Xrotation
				JOINT Neck
				{
					OFFSET -0.002778 0.213870 -0.042857
					CHANNELS 3 Zrotation Yrotation Xrotation
					JOINT Head
					{
						OFFSET 0.005152 0.064970 0.051349
						CHANNELS 3 Zrotation Yrotation Xrotation
						End Site
						{
							OFFSET 0.000000 0.000000 0.000000
						}
					}
				}
				JOINT LeftShoulder
				{
					OFFSET 0.078845 0.121749 -0.034090
					CHANNELS 3 Zrotation Yrotation Xrotation
					JOINT LeftArm
					{
						OFFSET 0.090977 0.030469 -0.008868
						CHANNELS 3 Zrotation Yrotation Xrotation
						JOINT LeftForeArm
						{
							OFFSET 0.259612 -0.012772 -0.027456
							CHANNELS 3 Zrotation Yrotation Xrotation
							JOINT LeftHand
							{
								OFFSET 0.249234 0.008986 -0.001171
								CHANNELS 3 Zrotation Yrotation Xrotation
								End Site
								{
									OFFSET 0.000000 0.000000 0.000000
								}
							}
						}
					}
				}
				JOINT RightShoulder
				{
					OFFSET -0.081759 0.118833 -0.038615
					CHANNELS 3 Zrotation Yrotation Xrotation
					JOINT RightArm
					{
						OFFSET -0.096012 0.032551 -0.009143
						CHANNELS 3 Zrotation Yrotation Xrotation
						JOINT RightForeArm
						{
							OFFSET -0.253742 -0.013329 -0.021401
							CHANNELS 3 Zrotation Yrotation Xrotation
							JOINT RightHand
							{
								OFFSET -0.255298 0.007772 -0.005559
								CHANNELS 3 Zrotation Yrotation Xrotation
								End Site
								{
									OFFSET 0.000000 0.000000 0.000000
								}
							}
						}
					}
				}
			}
		}
	}
}
MOTION
Frames: 11
Frame Time: 0.050000
0.000000 0.658820 0.000000 -3.225257 4.930458 42.559173 23.805787 -6.748009 29.708589 -23.456264 -8.343444 -69.433225 65.123941 32.892113 100.359027 0.000000 0.000000 0.000000 -23.665735 4.934546 27.478858 23.688083 5.571423 -67.058551 -50.005498 -32.196660 101.266272 0.000000 0.000000 0.000000 2.723395 0.061256 -8.740219 -9.131259 -0.489335 -61.831403 0.538982 -5.539260 62.983193 -1.791313 4.357376 -110.580161 0.000000 0.000000 0.000000 -16.181961 -7.006449 5.146288 -32.669277 -28.777262 -2.842511 -115.116443 50.318721 -69.574138 0.000000 0.000000 0.000000 18.935520 -2.303124 -1.874100 40.077930 -3.794985 -10.626052 27.520497 -74.340757 -22.232148 0.000000 0.000000 0.000000 
-0.000493 0.656595 -0.000459 -3.239149 4.623732 43.445930 23.012983 -6.015053 26.736637 -20.600618 -6.644859 -67.792330 62.367629 30.416762 104.358232 0.000000 0.000000 0.000000 -25.216172 5.317932 25.458994 26.007747 6.485553 -65.603978 -52.776628 -34.335295 97.707593 0.000000 0.000000 0.000000 2.544040 0.114086 -9.246390 -7.536624 -0.299012 -63.429782 -0.624556 -3.861584 64.685724 2.965282 4.811775 -110.875747 0.000000 0.000000 0.000000 -16.874201 -6.426539 4.805764 -33.562376 -32.466305 -2.248269 -113.726881 54.099409 -72.131486 0.000000 0.000000 0.000000 20.809878 -0.611888 -0.558332 41.098872 -6.369323 -11.892071 17.988823 -73.178170 -13.906736 0.000000 0.000000 0.000000 
-0.000474 0.655016 -0.000460 -3.804712 3.773527 43.542389 23.558424 -6.169423 27.965140 -21.962587 -7.062638 -68.293585 62.937349 30.954205 103.621566 0.000000 0.000000 0.000000 -26.411391 5.850418 25.358333 27.677389 7.524390 -65.745647 -47.570048 -34.105462 92.998191 0.000000 0.000000 0.000000 2.038264 0.268502 -10.910157 -3.766257 0.505483 -60.834179 -3.484557 -1.829621 61.257052 12.675432 7.125644 -115.666777 0.000000 0.000000 0.000000 -18.123695 -7.232932 5.038760 -32.844538 -29.033222 -2.802018 -107.147999 56.315179 -69.403780 0.000000 0.000000 0.000000 23.920666 2.863108 1.480514 37.891393 -10.284228 -11.472229 31.625573 -75.411236 -26.477770 0.000000 0.000000 0.000000 
-0.000474 0.651507 -0.000597 -4.172987 2.913167 44.197370 22.917451 -5.705844 27.858462 -22.398593 -6.733897 -66.915955 61.345891 31.262933 102.458038 0.000000 0.000000 0.000000 -27.695102 6.410626 24.732324 27.337612 7.727468 -66.638340 -46.160274 -33.221004 94.198414 0.000000 0.000000 0.000000 2.821959 0.400668 -13.365487 -5.559557 0.536917 -60.722782 -2.100359 -2.103728 62.255285 11.238580 6.625765 -112.510231 0.000000 0.000000 0.000000 -16.501447 -8.638308 5.777992 -34.422591 -28.926719 -2.667651 -100.717353 55.085257 -60.989927 0.000000 0.000000 0.000000 22.247584 2.223429 0.945022 39.647495 -11.810333 -12.516284 16.103120 -77.759541 -14.377925 0.000000 0.000000 0.000000 
-0.000592 0.652151 -0.000527 -4.828026 1.707818 43.374566 22.428455 -5.350144 28.970515 -22.602546 -6.368635 -66.345043 57.938670 31.202794 100.759694 0.000000 0.000000 0.000000 -28.647226 6.880683 23.849451 28.280520 8.407078 -65.487259 -48.223396 -33.758274 94.548936 0.000000 0.000000 0.000000 3.098572 0.494947 -14.119144 -3.932193 1.011890 -58.918683 -3.318478 -0.508813 61.431965 16.192967 7.199364 -111.399105 0.000000 0.000000 0.000000 -16.830289 -8.923718 5.859387 -34.637604 -28.423300 -2.733566 -94.251052 56.379112 -57.037623 0.000000 0.000000 0.000000 23.008073 2.691059 1.340220 40.260125 -12.736793 -12.985220 11.954390 -78.090970 -10.826723 0.000000 0.000000 0.000000 
-0.000638 0.649959 -0.000481 -5.520185 0.602381 43.047762 21.378245 -4.848876 30.721004 -22.234163 -5.956241 -67.144838 55.488469 30.864284 100.297119 0.000000 0.000000 0.000000 -29.232418 7.378269 23.964877 28.596179 8.902435 -65.246750 -47.417267 -33.539493 94.088313 0.000000 0.000000 0.000000 3.213584 0.567304 -14.443550 -3.112034 1.318847 -58.416170 -3.335188 -0.042178 60.825741 18.229669 7.335447 -109.400538 0.000000 0.000000 0.000000 -16.500098 -8.679996 5.724986 -34.783846 -26.991179 -2.986449 -83.637132 56.445970 -48.648169 0.000000 0.000000 0.000000 21.963061 2.209146 0.939711 41.864799 -12.565083 -13.371384 1.459474 -78.528821 -1.985473 0.000000 0.000000 0.000000 
-0.000693 0.649472 -0.000515 -5.371553 0.199332 42.265425 21.071245 -4.697044 31.701740 -22.218882 -5.954433 -67.219995 53.792617 30.825734 99.214028 0.000000 0.000000 0.000000 -28.848749 7.443615 25.058174 27.941251 8.961122 -66.040926 -47.814990 -33.478706 94.548514 0.000000 0.000000 0.000000 3.249724 0.593116 -14.514491 -2.604401 1.429108 -58.419856 -3.618128 0.103534 60.910219 18.481416 7.258591 -108.532898 0.000000 0.000000 0.000000 -16.774911 -8.307830 5.600292 -34.886334 -26.635712 -3.110816 -77.008427 57.870622 -44.992313 0.000000 0.000000 0.000000 21.986713 2.312959 0.981789 42.294191 -11.786522 -13.313463 -6.937558 -78.027951 5.070303 0.000000 0.000000 0.000000 
-0.000638 0.648211 -0.000539 -5.369169 -0.041716 42.226379 20.539167 -4.496982 32.422638 -21.775779 -5.765890 -67.707406 51.691184 30.484681 98.643809 0.000000 0.000000 0.000000 -28.857587 7.556802 25.363676 27.827725 9.049662 -66.405383 -47.917735 -33.584984 94.208145 0.000000 0.000000 0.000000 3.147966 0.608371 -14.581305 -1.789684 1.551171 -58.227596 -3.438901 0.583385 60.103295 17.708196 7.102243 -108.865412 0.000000 0.000000 0.000000 -17.545631 -8.508240 5.671126 -33.860671 -25.516165 -3.338256 -72.439984 58.373325 -42.712812 0.000000 0.000000 0.000000 22.073814 2.361727 1.107251 42.400538 -9.517457 -12.606154 -5.770039 -78.938950 4.461230 0.000000 0.000000 0.000000 
-0.000495 0.646781 -0.000635 -5.030144 -0.151953 42.029911 20.330058 -4.436762 32.917645 -21.428679 -5.636587 -67.752329 50.310694 30.312646 98.104373 0.000000 0.000000 0.000000 -29.032161 7.614360 25.412572 27.722664 9.010793 -66.514564 -49.159204 -33.874000 94.592033 0.000000 0.000000 0.000000 3.128401 0.607739 -14.566973 -1.707462 1.562965 -58.369614 -2.980635 0.921196 59.882640 15.684531 6.492166 -108.049038 0.000000 0.000000 0.000000 -17.942385 -8.221701 5.440143 -33.125662 -24.557486 -3.518751 -72.101396 59.230337 -43.647079 0.000000 0.000000 0.000000 22.073731 2.250952 1.156782 42.472157 -7.279459 -11.947017 -4.261525 -78.851556 3.496617 0.000000 0.000000 0.000000 
-0.000444 0.646160 -0.000852 -4.756131 -0.202429 41.729364 20.178756 -4.391999 33.416900 -20.901437 -5.504762 -68.332061 48.676705 29.903529 98.089291 0.000000 0.000000 0.000000 -29.033920 7.584397 25.473997 27.994833 9.182779 -66.533201 -50.660161 -34.079314 95.468931 0.000000 0.000000 0.000000 3.168663 0.598933 -14.414840 -1.694573 1.562989 -58.332354 -2.550425 1.127181 59.473282 13.246062 6.120279 -108.141584 0.000000 0.000000 0.000000 -18.258760 -8.154262 5.326214 -33.229555 -23.065423 -3.772823 -70.114327 60.340624 -43.372334 0.000000 0.000000 0.000000 22.040701 2.426237 1.333001 42.631933 -4.659995 -11.158855 -2.204289 -79.169245 2.120300 0.000000 0.000000 0.000000 
-0.000548 0.644857 -0.000981 -4.513389 -0.197225 41.776657 19.880992 -4.307617 33.635398 -20.384885 -5.287413 -68.251252 47.719719 29.683464 98.003639 0.000000 0.000000 0.000000 -29.208078 7.608236 25.379641 28.069741 9.128630 -66.331238 -51.430879 -34.051600 96.321763 0.000000 0.000000 0.000000 2.916059 0.641243 -14.937739 -1.309414 1.568046 -57.929720 -2.130479 1.613140 59.100825 12.542064 5.701795 -107.407514 0.000000 0.000000 0.000000 -18.264469 -8.248757 5.170264 -33.605182 -21.486888 -4.027425 -68.553714 60.175999 -42.436258 0.000000 0.000000 0.000000 21.819316 2.611220 1.652741 43.412801 -2.207143 -10.606490 7.860943 -79.681696 -5.687935 0.000000 0.000000 0.000000 
